<svg xmlns="http://www.w3.org/2000/svg" viewBox="0 0 24 30" fill="none" x="0px" y="0px"><path fill-rule="evenodd" clip-rule="evenodd" d="M11.999 4.70935C7.9725 4.70935 4.70839 7.97346 4.70839 11.9999C4.70839 16.0264 7.9725 19.2905 11.999 19.2905C16.0255 19.2905 19.2896 16.0264 19.2896 11.9999C19.2896 7.97346 16.0255 4.70935 11.999 4.70935ZM3.20839 11.9999C3.20839 7.14503 7.14407 3.20935 11.999 3.20935C16.8539 3.20935 20.7896 7.14503 20.7896 11.9999C20.7896 16.8548 16.8539 20.7905 11.999 20.7905C7.14407 20.7905 3.20839 16.8548 3.20839 11.9999Z" fill="black"/><path fill-rule="evenodd" clip-rule="evenodd" d="M20.2093 2.00017C20.664 2.00528 21.1433 2.12877 21.5073 2.49272C22.1199 3.10537 22.061 4.0224 21.8619 4.78324C21.6475 5.60277 21.1889 6.56983 20.561 7.61083C19.299 9.70308 17.2611 12.2433 14.7522 14.7522C12.2433 17.2611 9.70308 19.299 7.61083 20.561C6.56983 21.1889 5.60277 21.6475 4.78324 21.8619C4.0224 22.061 3.10537 22.1199 2.49272 21.5073C2.13208 21.1466 2.00748 20.6725 2.00034 20.2216C1.99326 19.7749 2.09811 19.2869 2.26733 18.789C2.60673 17.7904 3.26114 16.5921 4.13852 15.3002L5.37942 16.1429C4.5369 17.3835 3.9652 18.4548 3.68754 19.2717C3.54824 19.6815 3.49682 19.9878 3.50015 20.1979C3.50176 20.2996 3.51604 20.3638 3.52893 20.4004C3.54073 20.434 3.5511 20.4443 3.55337 20.4466L3.55338 20.4466C3.55429 20.4475 3.72417 20.5886 4.4035 20.4108C5.02413 20.2484 5.85049 19.8711 6.83608 19.2766C8.79701 18.0937 11.2426 16.1405 13.6916 13.6916C16.1405 11.2426 18.0937 8.79702 19.2766 6.83608C19.8711 5.85049 20.2484 5.02413 20.4108 4.4035C20.5886 3.72417 20.4475 3.55429 20.4466 3.55338L20.4466 3.55337C20.4443 3.5511 20.4338 3.54053 20.3994 3.52859C20.3619 3.51553 20.2962 3.50124 20.1924 3.50008C19.9781 3.49767 19.6663 3.55159 19.25 3.69497C18.4203 3.98069 17.3331 4.56564 16.0763 5.42478L15.2298 4.18645C16.5378 3.29234 17.7512 2.62464 18.7616 2.27671C19.2653 2.10326 19.7584 1.99511 20.2093 2.00017Z" fill="black"/><path fill-rule="evenodd" clip-rule="evenodd" d="M12.2706 7.19995C11.551 7.19995 10.9677 7.78326 10.9677 8.50282C10.9677 9.22237 11.551 9.80569 12.2706 9.80569C12.9901 9.80569 13.5734 9.22237 13.5734 8.50282C13.5734 7.78326 12.9901 7.19995 12.2706 7.19995ZM9.4677 8.50282C9.4677 6.95484 10.7226 5.69995 12.2706 5.69995C13.8185 5.69995 15.0734 6.95484 15.0734 8.50282C15.0734 10.0508 13.8185 11.3057 12.2706 11.3057C10.7226 11.3057 9.4677 10.0508 9.4677 8.50282Z" fill="black"/><path fill-rule="evenodd" clip-rule="evenodd" d="M8.72416 13.3491C8.31351 13.3491 7.98062 13.682 7.98062 14.0927C7.98062 14.5033 8.31351 14.8362 8.72416 14.8362C9.1348 14.8362 9.4677 14.5033 9.4677 14.0927C9.4677 13.682 9.1348 13.3491 8.72416 13.3491ZM6.48062 14.0927C6.48062 12.8536 7.48509 11.8491 8.72416 11.8491C9.96323 11.8491 10.9677 12.8536 10.9677 14.0927C10.9677 15.3317 9.96323 16.3362 8.72416 16.3362C7.48509 16.3362 6.48062 15.3317 6.48062 14.0927Z" fill="black"/><path d="M16.451 16.3608C16.451 16.9017 16.0124 17.3403 15.4714 17.3403C14.9305 17.3403 14.4919 16.9017 14.4919 16.3608C14.4919 15.8198 14.9305 15.3812 15.4714 15.3812C16.0124 15.3812 16.451 15.8198 16.451 16.3608Z" fill="black"/><text x="0" y="39" fill="#000000" font-size="5px" font-weight="bold" font-family="'Helvetica Neue', Helvetica, Arial-Unicode, Arial, Sans-serif">Created by Assetwave</text><text x="0" y="44" fill="#000000" font-size="5px" font-weight="bold" font-family="'Helvetica Neue', Helvetica, Arial-Unicode, Arial, Sans-serif">from the Noun Project</text></svg>